# Blender v3.1.2 OBJ File: 'book.blend'
# www.blender.org
mtllib closedbook.mtl
o Plane.003
v -2.378703 0.000000 3.015585
v -2.378703 0.000000 -3.015585
v 2.242759 0.265128 3.015585
v 2.242759 0.265128 -3.015585
v 2.144673 0.000000 -3.015585
v 2.144673 0.000000 3.015585
v -2.378721 0.056929 3.015585
v -2.378721 0.056929 -3.015585
v 2.220356 0.322057 3.015585
v 2.220356 0.322057 -3.015585
v 2.144654 0.056929 -3.015585
v 2.144654 0.056929 3.015585
vt 0.450472 0.000000
vt 0.450472 1.000000
vt 0.500000 1.000000
vt 0.500000 0.000000
vt 0.000000 0.000000
vt 0.000000 1.000000
vt 0.450472 0.000000
vt 0.500000 0.000000
vt 0.500000 1.000000
vt 0.450472 1.000000
vt 0.000000 0.000000
vt 0.000000 1.000000
vn 0.9379 -0.3470 0.0000
vn 0.0000 -1.0000 0.0000
vn -0.9616 0.2746 0.0000
vn 0.0000 1.0000 0.0000
vn 0.0000 0.0000 -1.0000
vn -1.0000 -0.0003 0.0000
vn 0.0000 0.0000 1.0000
usemtl BookCover
s off
f 6/1/1 5/2/1 4/3/1 3/4/1
f 1/5/2 2/6/2 5/2/2 6/1/2
f 12/7/3 9/8/3 10/9/3 11/10/3
f 7/11/4 12/7/4 11/10/4 8/12/4
f 5/2/5 2/6/5 8/12/5 11/10/5
f 4/3/5 5/2/5 11/10/5 10/9/5
f 2/6/6 1/5/6 7/11/6 8/12/6
f 6/1/7 3/4/7 9/8/7 12/7/7
f 1/5/7 6/1/7 12/7/7 7/11/7
o Plane.004
v -2.318704 0.058532 2.950949
v 2.137266 0.057354 2.950949
v -2.302152 0.271647 2.950949
v 2.240884 0.268399 2.950949
v -2.309174 0.194976 2.950949
v -2.309662 0.173986 2.950949
v -2.311494 0.150798 2.950949
v -2.312287 0.127611 2.950949
v -2.315767 0.106621 2.950949
v -2.316194 0.079037 2.950949
v 2.197626 0.194381 2.950949
v 2.203107 0.180704 2.950949
v 2.214001 0.210361 2.950949
v 2.221215 0.226770 2.950949
v 2.229165 0.244061 2.950949
v 2.234170 0.255523 2.950949
v -2.318704 0.058533 -2.955742
v 2.137266 0.057354 -2.955742
v -2.302152 0.271647 -2.955742
v 2.240884 0.268399 -2.955742
v -2.309174 0.194976 -2.955742
v -2.309662 0.173987 -2.955742
v -2.311494 0.150799 -2.955742
v -2.312287 0.127611 -2.955742
v -2.315767 0.106621 -2.955742
v -2.316194 0.079037 -2.955742
v 2.197626 0.194381 -2.955742
v 2.203107 0.180704 -2.955742
v 2.214001 0.210362 -2.955742
v 2.221215 0.226770 -2.955742
v 2.229165 0.244062 -2.955742
v 2.234170 0.255524 -2.955742
v 2.240884 0.268399 -2.955742
v 2.229165 0.244062 -2.955742
vt 0.000000 0.857143
vt 0.000000 1.000000
vt 1.000000 1.000000
vt 1.000000 0.857143
vt 0.000000 0.000000
vt 0.000000 0.142857
vt 1.000000 0.142857
vt 1.000000 0.000000
vt 0.000000 0.285714
vt 1.000000 0.285714
vt 0.000000 0.428571
vt 1.000000 0.428571
vt 0.000000 0.571429
vt 1.000000 0.571429
vt 0.000000 0.714286
vt 1.000000 0.714286
vt 0.000000 0.857143
vt 1.000000 0.857143
vt 1.000000 1.000000
vt 0.000000 1.000000
vt 0.000000 0.000000
vt 1.000000 0.000000
vt 1.000000 0.142857
vt 0.000000 0.142857
vt 1.000000 0.285714
vt 0.000000 0.285714
vt 1.000000 0.428571
vt 0.000000 0.428571
vt 1.000000 0.571429
vt 0.000000 0.571429
vt 1.000000 0.714286
vt 0.000000 0.714286
vt 1.000000 0.714286
vt 1.000000 1.000000
vn 0.0000 0.0000 -1.0000
vn -0.0000 0.0000 1.0000
vn -0.9164 0.4002 0.0000
vn 0.9865 -0.1636 -0.0000
vn 0.0003 1.0000 0.0000
vn 0.9999 -0.0155 -0.0000
vn -0.8867 0.4624 0.0000
vn -0.9151 0.4031 0.0000
vn -0.0007 -1.0000 -0.0000
vn 0.9282 0.3720 0.0000
vn 0.9958 -0.0912 -0.0000
vn -0.9387 0.3448 0.0000
vn 0.9997 -0.0233 -0.0000
vn -0.9154 0.4025 0.0000
vn 0.9969 -0.0787 -0.0000
vn -0.9086 0.4177 0.0000
vn 0.9994 -0.0342 -0.0000
vn 0.9926 -0.1215 -0.0000
usemtl Page
s off
f 17/13/8 15/14/8 16/15/8 28/16/8
f 13/17/8 22/18/8 23/19/8 14/20/8
f 22/18/8 21/21/8 24/22/8 23/19/8
f 21/21/8 20/23/8 25/24/8 24/22/8
f 20/23/8 19/25/8 26/26/8 25/24/8
f 19/25/8 18/27/8 27/28/8 26/26/8
f 18/27/8 17/13/8 28/16/8 27/28/8
f 33/29/9 44/30/9 45/31/9 31/32/9
f 29/33/9 30/34/9 39/35/9 38/36/9
f 38/36/9 39/35/9 40/37/9 37/38/9
f 37/38/9 40/37/9 41/39/9 36/40/9
f 36/40/9 41/39/9 42/41/9 35/42/9
f 35/42/9 42/41/9 46/43/9 34/44/9
f 34/44/9 43/45/9 44/30/9 33/29/9
f 27/28/10 28/16/10 44/30/10 43/45/10
f 20/23/11 21/21/11 37/38/11 36/40/11
f 13/17/12 14/20/12 30/34/12 29/33/12
f 21/21/13 22/18/13 38/36/13 37/38/13
f 28/16/14 16/15/14 32/46/14 44/30/14
f 14/20/15 23/19/15 39/35/15 30/34/15
f 16/15/16 15/14/16 31/32/16 45/31/16
f 23/19/17 24/22/17 40/37/17 39/35/17
f 15/14/18 17/13/18 33/29/18 31/32/18
f 24/22/19 25/24/19 41/39/19 40/37/19
f 17/13/20 18/27/20 34/44/20 33/29/20
f 25/24/21 26/26/21 42/41/21 41/39/21
f 18/27/22 19/25/22 35/42/22 34/44/22
f 26/26/23 27/28/23 46/43/23 42/41/23
f 19/25/24 20/23/24 36/40/24 35/42/24
f 22/18/25 13/17/25 29/33/25 38/36/25
o Plane.006
v -2.320971 0.509605 2.950949
v 2.134999 0.512981 2.950949
v -2.304420 0.273412 2.950949
v 2.238617 0.260176 2.950949
v -2.311441 0.333598 2.950949
v -2.311929 0.354588 2.950949
v -2.313761 0.377776 2.950949
v -2.314554 0.400964 2.950949
v -2.318034 0.421954 2.950949
v -2.318461 0.449537 2.950949
v 2.188032 0.385478 2.950949
v 2.200840 0.347871 2.950949
v 2.211734 0.318213 2.950949
v 2.218948 0.301805 2.950949
v 2.226897 0.284513 2.950949
v 2.231903 0.273051 2.950949
v -2.320971 0.509604 -2.955742
v 2.134999 0.512981 -2.955742
v -2.304420 0.273412 -2.955742
v 2.238617 0.260176 -2.955742
v -2.311441 0.333598 -2.955742
v -2.311929 0.354588 -2.955742
v -2.313761 0.377776 -2.955742
v -2.314554 0.400963 -2.955742
v -2.318034 0.421953 -2.955742
v -2.318461 0.449537 -2.955742
v 2.188032 0.385478 -2.955742
v 2.200840 0.347870 -2.955742
v 2.211734 0.318213 -2.955742
v 2.218948 0.301804 -2.955742
v 2.226897 0.284513 -2.955742
v 2.231903 0.273051 -2.955742
v 2.238617 0.260176 -2.955742
v 2.226897 0.284513 -2.955742
vt 0.000000 0.857143
vt 1.000000 0.857143
vt 1.000000 1.000000
vt 0.000000 1.000000
vt 0.000000 0.000000
vt 1.000000 0.000000
vt 1.000000 0.142857
vt 0.000000 0.142857
vt 1.000000 0.285714
vt 0.000000 0.285714
vt 1.000000 0.428571
vt 0.000000 0.428571
vt 1.000000 0.571429
vt 0.000000 0.571429
vt 1.000000 0.714286
vt 0.000000 0.714286
vt 0.000000 0.857143
vt 0.000000 1.000000
vt 1.000000 1.000000
vt 1.000000 0.857143
vt 0.000000 0.000000
vt 0.000000 0.142857
vt 1.000000 0.142857
vt 1.000000 0.000000
vt 0.000000 0.285714
vt 1.000000 0.285714
vt 0.000000 0.428571
vt 1.000000 0.428571
vt 0.000000 0.571429
vt 1.000000 0.571429
vt 0.000000 0.714286
vt 1.000000 0.714286
vt 1.000000 0.714286
vt 1.000000 1.000000
vn -0.0000 0.0000 -1.0000
vn -0.0000 0.0000 1.0000
vn -0.9164 -0.4002 0.0000
vn 0.9865 0.1636 -0.0000
vn 0.0008 -1.0000 0.0000
vn 0.9999 0.0155 -0.0000
vn -0.8867 -0.4624 0.0000
vn -0.9233 -0.3840 0.0000
vn 0.0029 1.0000 -0.0000
vn -0.9466 -0.3224 0.0000
vn 0.9933 0.1159 -0.0000
vn -0.9387 -0.3448 0.0000
vn 0.9997 0.0233 -0.0000
vn -0.9154 -0.4025 0.0000
vn 0.9969 0.0787 -0.0000
vn -0.9086 -0.4177 0.0000
vn 0.9994 0.0342 -0.0000
vn 0.9991 0.0417 -0.0000
usemtl Page
s off
f 51/47/26 62/48/26 50/49/26 49/50/26
f 47/51/26 48/52/26 57/53/26 56/54/26
f 56/54/26 57/53/26 58/55/26 55/56/26
f 55/56/26 58/55/26 59/57/26 54/58/26
f 54/58/26 59/57/26 60/59/26 53/60/26
f 53/60/26 60/59/26 61/61/26 52/62/26
f 52/62/26 61/61/26 62/48/26 51/47/26
f 67/63/27 65/64/27 79/65/27 78/66/27
f 63/67/27 72/68/27 73/69/27 64/70/27
f 72/68/27 71/71/27 74/72/27 73/69/27
f 71/71/27 70/73/27 75/74/27 74/72/27
f 70/73/27 69/75/27 76/76/27 75/74/27
f 69/75/27 68/77/27 80/78/27 76/76/27
f 68/77/27 67/63/27 78/66/27 77/79/27
f 61/61/28 77/79/28 78/66/28 62/48/28
f 54/58/29 70/73/29 71/71/29 55/56/29
f 47/51/30 63/67/30 64/70/30 48/52/30
f 55/56/31 71/71/31 72/68/31 56/54/31
f 62/48/32 78/66/32 66/80/32 50/49/32
f 48/52/33 64/70/33 73/69/33 57/53/33
f 50/49/34 79/65/34 65/64/34 49/50/34
f 57/53/35 73/69/35 74/72/35 58/55/35
f 49/50/36 65/64/36 67/63/36 51/47/36
f 58/55/37 74/72/37 75/74/37 59/57/37
f 51/47/38 67/63/38 68/77/38 52/62/38
f 59/57/39 75/74/39 76/76/39 60/59/39
f 52/62/40 68/77/40 69/75/40 53/60/40
f 60/59/41 76/76/41 80/78/41 61/61/41
f 53/60/42 69/75/42 70/73/42 54/58/42
f 56/54/43 72/68/43 63/67/43 47/51/43
o Plane.007
v -2.378703 0.566605 3.015585
v -2.378703 0.566605 -3.015585
v 2.244599 0.321229 3.015585
v 2.244599 0.321229 -3.015585
v 2.144673 0.566605 -3.015585
v 2.144673 0.566605 3.015585
v -2.378721 0.509676 3.015585
v -2.378721 0.509676 -3.015585
v 2.242004 0.265159 3.015585
v 2.242004 0.265159 -3.015585
v 2.144654 0.509676 -3.015585
v 2.144654 0.509676 3.015585
vt 0.450472 0.000000
vt 0.500000 0.000000
vt 0.500000 1.000000
vt 0.450472 1.000000
vt 0.000000 0.000000
vt 0.000000 1.000000
vt 0.450472 0.000000
vt 0.450472 1.000000
vt 0.500000 1.000000
vt 0.500000 0.000000
vt 0.000000 0.000000
vt 0.000000 1.000000
vn 0.9261 0.3772 0.0000
vn 0.0000 1.0000 0.0000
vn -0.9291 -0.3699 0.0000
vn 0.0000 -1.0000 0.0000
vn 0.0000 0.0000 -1.0000
vn -1.0000 0.0003 0.0000
vn 0.0000 0.0000 1.0000
usemtl BookCover
s off
f 86/81/44 83/82/44 84/83/44 85/84/44
f 81/85/45 86/81/45 85/84/45 82/86/45
f 92/87/46 91/88/46 90/89/46 89/90/46
f 87/91/47 88/92/47 91/88/47 92/87/47
f 85/84/48 91/88/48 88/92/48 82/86/48
f 84/83/48 90/89/48 91/88/48 85/84/48
f 82/86/49 88/92/49 87/91/49 81/85/49
f 86/81/50 92/87/50 89/90/50 83/82/50
f 81/85/50 87/91/50 92/87/50 86/81/50
