# Blender v3.1.2 OBJ File: 'book.blend'
# www.blender.org
mtllib openbook.mtl
o Plane
v -5.020710 0.000000 3.015585
v 5.020710 0.000000 3.015585
v -5.020710 0.000000 -3.015585
v 5.020710 0.000000 -3.015585
v 0.000000 -0.041145 3.015585
v 0.000000 -0.041145 -3.015585
v 0.489440 0.000000 3.015585
v 0.489440 0.000000 -3.015585
v -0.497334 0.000000 -3.015585
v -0.497334 0.000000 3.015585
v -5.020729 0.056929 3.015585
v 5.020691 0.056929 3.015585
v -5.020729 0.056929 -3.015585
v 5.020691 0.056929 -3.015585
v -0.000019 0.015784 3.015585
v -0.000019 0.015784 -3.015585
v 0.489422 0.056929 3.015585
v 0.489422 0.056929 -3.015585
v -0.497353 0.056929 -3.015585
v -0.497353 0.056929 3.015585
vt 0.548742 0.000000
vt 0.548742 1.000000
vt 1.000000 1.000000
vt 1.000000 0.000000
vt 0.450472 0.000000
vt 0.450472 1.000000
vt 0.500000 1.000000
vt 0.500000 0.000000
vt 0.000000 0.000000
vt 0.000000 1.000000
vt 0.548742 0.000000
vt 1.000000 0.000000
vt 1.000000 1.000000
vt 0.548742 1.000000
vt 0.450472 0.000000
vt 0.500000 0.000000
vt 0.500000 1.000000
vt 0.450472 1.000000
vt 0.000000 0.000000
vt 0.000000 1.000000
vn 0.0000 -1.0000 0.0000
vn -0.0824 -0.9966 0.0000
vn 0.0838 -0.9965 0.0000
vn 0.0000 1.0000 0.0000
vn 0.0824 0.9966 0.0000
vn -0.0838 0.9965 0.0000
vn 0.0000 0.0000 -1.0000
vn -1.0000 -0.0003 0.0000
vn 0.0000 0.0000 1.0000
vn 1.0000 0.0003 0.0000
usemtl BookCover
s off
f 7/1/1 8/2/1 4/3/1 2/4/1
f 10/5/2 9/6/2 6/7/2 5/8/2
f 5/8/3 6/7/3 8/2/3 7/1/3
f 1/9/1 3/10/1 9/6/1 10/5/1
f 17/11/4 12/12/4 14/13/4 18/14/4
f 20/15/5 15/16/5 16/17/5 19/18/5
f 15/16/6 17/11/6 18/14/6 16/17/6
f 11/19/4 20/15/4 19/18/4 13/20/4
f 9/6/7 3/10/7 13/20/7 19/18/7
f 6/7/7 9/6/7 19/18/7 16/17/7
f 3/10/8 1/9/8 11/19/8 13/20/8
f 5/8/9 7/1/9 17/11/9 15/16/9
f 10/5/9 5/8/9 15/16/9 20/15/9
f 1/9/9 10/5/9 20/15/9 11/19/9
f 7/1/9 2/4/9 12/12/9 17/11/9
f 4/3/7 8/2/7 18/14/7 14/13/7
f 8/2/7 6/7/7 16/17/7 18/14/7
f 2/4/10 4/3/10 14/13/10 12/12/10
o Plane.001
v -4.960711 0.058532 2.950949
v 0.001662 0.032034 2.950949
v -4.669181 0.451630 2.950949
v -0.081545 0.235752 2.950949
v -4.734814 0.395473 2.950949
v -4.783656 0.339316 2.950949
v -4.829447 0.283160 2.950949
v -4.867605 0.227003 2.950949
v -4.899658 0.170846 2.950949
v -4.928658 0.114689 2.950949
v -0.009998 0.110449 2.950949
v -0.025897 0.148057 2.950949
v -0.040030 0.177715 2.950949
v -0.049746 0.194123 2.950949
v -0.059462 0.211415 2.950949
v -0.069178 0.222877 2.950949
v -4.960711 0.058533 -2.955742
v 0.001662 0.032034 -2.955742
v -4.669181 0.451630 -2.955742
v -0.081545 0.235752 -2.955742
v -4.734814 0.395474 -2.955742
v -4.783656 0.339317 -2.955742
v -4.829447 0.283160 -2.955742
v -4.867605 0.227003 -2.955742
v -4.899658 0.170846 -2.955742
v -4.928658 0.114690 -2.955742
v -0.009998 0.110450 -2.955742
v -0.025897 0.148057 -2.955742
v -0.040030 0.177715 -2.955742
v -0.049746 0.194123 -2.955742
v -0.059462 0.211415 -2.955742
v -0.069178 0.222877 -2.955742
vt 0.000000 0.857143
vt 1.000000 0.857143
vt 1.000000 1.000000
vt 0.000000 1.000000
vt 0.000000 0.000000
vt 1.000000 0.000000
vt 1.000000 0.142857
vt 0.000000 0.142857
vt 1.000000 0.285714
vt 0.000000 0.285714
vt 1.000000 0.428571
vt 0.000000 0.428571
vt 1.000000 0.571429
vt 0.000000 0.571429
vt 1.000000 0.714286
vt 0.000000 0.714286
vt 0.000000 0.857143
vt 0.000000 1.000000
vt 1.000000 1.000000
vt 1.000000 0.857143
vt 0.000000 0.000000
vt 0.000000 0.142857
vt 1.000000 0.142857
vt 1.000000 0.000000
vt 0.000000 0.285714
vt 1.000000 0.285714
vt 0.000000 0.428571
vt 1.000000 0.428571
vt 0.000000 0.571429
vt 1.000000 0.571429
vt 0.000000 0.714286
vt 1.000000 0.714286
vn 0.0000 0.0000 1.0000
vn -0.0000 0.0000 -1.0000
vn 0.7628 0.6466 0.0000
vn -0.8685 0.4957 0.0000
vn -0.0053 -1.0000 -0.0000
vn -0.8885 0.4588 0.0000
vn 0.7212 0.6927 0.0000
vn 0.9891 0.1471 0.0000
vn 0.0470 0.9989 0.0000
vn 0.9211 0.3894 0.0000
vn -0.6501 0.7598 0.0000
vn 0.9027 0.4302 0.0000
vn -0.7545 0.6563 0.0000
vn 0.8605 0.5095 0.0000
vn -0.7750 0.6319 0.0000
vn 0.8718 0.4899 0.0000
vn -0.8271 0.5620 0.0000
usemtl Page
s off
f 25/21/11 36/22/11 24/23/11 23/24/11
f 21/25/11 22/26/11 31/27/11 30/28/11
f 30/28/11 31/27/11 32/29/11 29/30/11
f 29/30/11 32/29/11 33/31/11 28/32/11
f 28/32/11 33/31/11 34/33/11 27/34/11
f 27/34/11 34/33/11 35/35/11 26/36/11
f 26/36/11 35/35/11 36/22/11 25/21/11
f 41/37/12 39/38/12 40/39/12 52/40/12
f 37/41/12 46/42/12 47/43/12 38/44/12
f 46/42/12 45/45/12 48/46/12 47/43/12
f 45/45/12 44/47/12 49/48/12 48/46/12
f 44/47/12 43/49/12 50/50/12 49/48/12
f 43/49/12 42/51/12 51/52/12 50/50/12
f 42/51/12 41/37/12 52/40/12 51/52/12
f 35/35/13 51/52/13 52/40/13 36/22/13
f 28/32/14 44/47/14 45/45/14 29/30/14
f 21/25/15 37/41/15 38/44/15 22/26/15
f 29/30/16 45/45/16 46/42/16 30/28/16
f 36/22/17 52/40/17 40/39/17 24/23/17
f 22/26/18 38/44/18 47/43/18 31/27/18
f 24/23/19 40/39/19 39/38/19 23/24/19
f 31/27/20 47/43/20 48/46/20 32/29/20
f 23/24/21 39/38/21 41/37/21 25/21/21
f 32/29/22 48/46/22 49/48/22 33/31/22
f 25/21/23 41/37/23 42/51/23 26/36/23
f 33/31/24 49/48/24 50/50/24 34/33/24
f 26/36/25 42/51/25 43/49/25 27/34/25
f 34/33/26 50/50/26 51/52/26 35/35/26
f 27/34/27 43/49/27 44/47/27 28/32/27
f 30/28/14 46/42/14 37/41/14 21/25/14
o Plane.002
v 4.962506 0.058532 -2.947742
v 0.000133 0.032034 -2.947744
v 4.670976 0.451630 -2.947742
v 0.083339 0.235752 -2.947744
v 4.736609 0.395473 -2.947742
v 4.785451 0.339316 -2.947742
v 4.831242 0.283160 -2.947742
v 4.869400 0.227003 -2.947742
v 4.901453 0.170846 -2.947742
v 4.930453 0.114689 -2.947742
v 0.011792 0.110449 -2.947744
v 0.027692 0.148057 -2.947744
v 0.041825 0.177715 -2.947744
v 0.051541 0.194123 -2.947744
v 0.061257 0.211415 -2.947744
v 0.070973 0.222877 -2.947744
v 4.962504 0.058533 2.958949
v 0.000131 0.032034 2.958947
v 4.670974 0.451630 2.958948
v 0.083338 0.235752 2.958947
v 4.736607 0.395474 2.958949
v 4.785449 0.339317 2.958949
v 4.831240 0.283160 2.958949
v 4.869398 0.227003 2.958949
v 4.901451 0.170846 2.958949
v 4.930451 0.114690 2.958949
v 0.011791 0.110450 2.958947
v 0.027690 0.148057 2.958947
v 0.041823 0.177715 2.958947
v 0.051539 0.194123 2.958947
v 0.061255 0.211415 2.958947
v 0.070971 0.222877 2.958947
vt 0.000000 0.857143
vt 1.000000 0.857143
vt 1.000000 1.000000
vt 0.000000 1.000000
vt 0.000000 0.000000
vt 1.000000 0.000000
vt 1.000000 0.142857
vt 0.000000 0.142857
vt 1.000000 0.285714
vt 0.000000 0.285714
vt 1.000000 0.428571
vt 0.000000 0.428571
vt 1.000000 0.571429
vt 0.000000 0.571429
vt 1.000000 0.714286
vt 0.000000 0.714286
vt 0.000000 0.857143
vt 0.000000 1.000000
vt 1.000000 1.000000
vt 1.000000 0.857143
vt 0.000000 0.000000
vt 0.000000 0.142857
vt 1.000000 0.142857
vt 1.000000 0.000000
vt 0.000000 0.285714
vt 1.000000 0.285714
vt 0.000000 0.428571
vt 1.000000 0.428571
vt 0.000000 0.571429
vt 1.000000 0.571429
vt 0.000000 0.714286
vt 1.000000 0.714286
vn 0.0000 0.0000 -1.0000
vn -0.0000 0.0000 1.0000
vn -0.7628 0.6466 -0.0000
vn 0.8685 0.4957 0.0000
vn 0.0053 -1.0000 0.0000
vn 0.8885 0.4588 0.0000
vn -0.7212 0.6927 -0.0000
vn -0.9891 0.1471 -0.0000
vn -0.0470 0.9989 -0.0000
vn -0.9211 0.3894 -0.0000
vn 0.6501 0.7598 0.0000
vn -0.9027 0.4302 -0.0000
vn 0.7545 0.6563 0.0000
vn -0.8605 0.5095 -0.0000
vn 0.7750 0.6319 0.0000
vn -0.8718 0.4899 -0.0000
vn 0.8271 0.5620 0.0000
usemtl Page
s off
f 57/53/28 68/54/28 56/55/28 55/56/28
f 53/57/28 54/58/28 63/59/28 62/60/28
f 62/60/28 63/59/28 64/61/28 61/62/28
f 61/62/28 64/61/28 65/63/28 60/64/28
f 60/64/28 65/63/28 66/65/28 59/66/28
f 59/66/28 66/65/28 67/67/28 58/68/28
f 58/68/28 67/67/28 68/54/28 57/53/28
f 73/69/29 71/70/29 72/71/29 84/72/29
f 69/73/29 78/74/29 79/75/29 70/76/29
f 78/74/29 77/77/29 80/78/29 79/75/29
f 77/77/29 76/79/29 81/80/29 80/78/29
f 76/79/29 75/81/29 82/82/29 81/80/29
f 75/81/29 74/83/29 83/84/29 82/82/29
f 74/83/29 73/69/29 84/72/29 83/84/29
f 67/67/30 83/84/30 84/72/30 68/54/30
f 60/64/31 76/79/31 77/77/31 61/62/31
f 53/57/32 69/73/32 70/76/32 54/58/32
f 61/62/33 77/77/33 78/74/33 62/60/33
f 68/54/34 84/72/34 72/71/34 56/55/34
f 54/58/35 70/76/35 79/75/35 63/59/35
f 56/55/36 72/71/36 71/70/36 55/56/36
f 63/59/37 79/75/37 80/78/37 64/61/37
f 55/56/38 71/70/38 73/69/38 57/53/38
f 64/61/39 80/78/39 81/80/39 65/63/39
f 57/53/40 73/69/40 74/83/40 58/68/40
f 65/63/41 81/80/41 82/82/41 66/65/41
f 58/68/42 74/83/42 75/81/42 59/66/42
f 66/65/43 82/82/43 83/84/43 67/67/43
f 59/66/44 75/81/44 76/79/44 60/64/44
f 62/60/31 78/74/31 69/73/31 53/57/31
