# Blender 3.1.2
# www.blender.org
mtllib shelf.mtl
o Cube
v 0.506530 0.466540 -0.234987
v 0.506530 -0.033669 -0.234987
v 0.499822 0.460362 0.264835
v 0.499822 -0.027491 0.264835
v -0.506530 0.466540 -0.234987
v -0.506530 -0.033669 -0.234987
v -0.499822 0.460362 0.264835
v -0.499822 -0.027491 0.264835
v 0.469975 0.432871 -0.234987
v 0.469975 0.000000 -0.234987
v 0.469975 0.432871 0.234987
v 0.469975 0.000000 0.234987
v -0.469975 0.432871 -0.234987
v -0.469975 0.000000 -0.234987
v -0.469975 0.432871 0.234987
v -0.469975 0.000000 0.234987
vn -0.0000 0.9999 0.0124
vn -0.0000 -0.0000 1.0000
vn -0.9999 -0.0000 0.0134
vn -0.0000 -0.9999 0.0124
vn 0.9999 -0.0000 0.0134
vn -0.0000 -1.0000 -0.0000
vn -0.0000 -0.0000 -1.0000
vn 1.0000 -0.0000 -0.0000
vn -0.0000 1.0000 -0.0000
vn -1.0000 -0.0000 -0.0000
vt 0.625000 0.500000
vt 0.375000 0.500000
vt 0.625000 0.750000
vt 0.375000 0.750000
vt 0.625000 0.250000
vt 0.875000 0.500000
vt 0.125000 0.500000
vt 0.375000 0.250000
vt 0.875000 0.750000
vt 0.625000 1.000000
vt 0.625000 0.000000
vt 0.375000 1.000000
vt 0.375000 0.000000
vt 0.125000 0.750000
vt 0.625000 0.500000
vt 0.375000 0.500000
vt 0.625000 0.750000
vt 0.375000 0.750000
vt 0.625000 0.250000
vt 0.875000 0.500000
vt 0.125000 0.500000
vt 0.375000 0.250000
vt 0.875000 0.750000
vt 0.625000 1.000000
vt 0.625000 0.000000
vt 0.375000 1.000000
vt 0.375000 0.000000
vt 0.125000 0.750000
s 0
usemtl Material
f 1/1/1 5/6/1 7/9/1 3/3/1
f 4/4/2 3/3/2 7/10/2 8/12/2
f 8/13/3 7/11/3 5/5/3 6/8/3
f 6/7/4 2/2/4 4/4/4 8/14/4
f 2/2/5 1/1/5 3/3/5 4/4/5
f 9/15/6 11/17/6 15/23/6 13/20/6
f 12/18/7 16/26/7 15/24/7 11/17/7
f 16/27/8 14/22/8 13/19/8 15/25/8
f 14/21/9 16/28/9 12/18/9 10/16/9
f 10/16/10 12/18/10 11/17/10 9/15/10
f 2/2/7 6/7/7 14/21/7 10/16/7
f 1/1/7 2/2/7 10/16/7 9/15/7
f 6/8/7 5/5/7 13/19/7 14/22/7
f 5/6/7 1/1/7 9/15/7 13/20/7
